<svg xmlns="http://www.w3.org/2000/svg" viewBox="0 0 129 129" fill="#005ae0" stroke="#005ae0">
  <title>Ativo 4</title>
  <g id="Camada_2" data-name="Camada 2">
    <g id="Camada_5" data-name="Camada 5">
      <path
        d="M64.5,0A64.5,64.5,0,1,0,129,64.5,64.5,64.5,0,0,0,64.5,0ZM86.85,40.43,106,61.11l-2.87,2.66h0L86.85,46.19ZM65.18,74.51l9.3-3.11L75,63l12.27.1.23,8.51,9.68,3.1,4.12,13.79-40.37.13Zm-5.75.42a4.7,4.7,0,0,0-4.7-4.7,4.7,4.7,0,0,0,4.7-4.7,4.69,4.69,0,0,0,4.7,4.7A4.69,4.69,0,0,0,59.43,74.93Zm32.91-8a2.55,2.55,0,0,0,2.55-2.55,2.55,2.55,0,0,0,2.54,2.55,2.55,2.55,0,0,0-2.54,2.55A2.55,2.55,0,0,0,92.34,66.9Zm-8-49.76.16,43.48-6.46,0-.17-43.47ZM50.42,111.8l-8.9.06a6,6,0,0,1-6-6V68.37h-8.2a4.32,4.32,0,0,1-3.17-7.26L61.89,20.33a4.31,4.31,0,0,1,6.34,0l7.46,8v5.77L65.36,23a.41.41,0,0,0-.6,0L27,63.77a.38.38,0,0,0-.07.44.37.37,0,0,0,.37.24l12.12.1v41.27a2.12,2.12,0,0,0,2.12,2.12h8.9ZM51,100a6.47,6.47,0,0,0-6.47-6.47A6.47,6.47,0,0,0,51,87.08a6.46,6.46,0,0,0,6.46,6.46A6.47,6.47,0,0,0,51,100ZM75,111.76,73.14,99.22l-5.09,12.34v.2h-.59l-1.37-10.19-4.51,10.19H56.29L62.56,90.6H100l6.07,21.16Z" />
    </g>
  </g>
</svg>