<svg xmlns="http://www.w3.org/2000/svg" viewBox="0 0 197.04 150.11"><defs><style>.cls-1{fill:#4419dd;}</style></defs><title>Ativo 14</title><g id="Camada_2" data-name="Camada 2"><g id="Camada_6" data-name="Camada 6"><path class="cls-1" d="M167.34,123.39a6.31,6.31,0,0,1-4.47-1.86L134,92.68H71.26A14.51,14.51,0,0,1,56.77,78.19V14.48A14.5,14.5,0,0,1,71.26,0h111.3A14.5,14.5,0,0,1,197,14.48V77.36a14.5,14.5,0,0,1-14.48,14.48h-8.9v25.23a6.32,6.32,0,0,1-3.9,5.84A6.41,6.41,0,0,1,167.34,123.39ZM71.26,10a4.47,4.47,0,0,0-4.47,4.46V78.19a4.47,4.47,0,0,0,4.47,4.47h66.91l25.47,25.47V81.82h18.92A4.46,4.46,0,0,0,187,77.36V14.48A4.46,4.46,0,0,0,182.56,10Z"/><path class="cls-1" d="M97.72,109.37H58.87L33.4,134.85V108.54H14.48A4.46,4.46,0,0,1,10,104.08V41.2a4.46,4.46,0,0,1,4.46-4.46H39.13a4.93,4.93,0,0,0,4.92-5.12v-.17a4.92,4.92,0,0,0-4.92-4.73H14.48A14.48,14.48,0,0,0,0,41.2v62.88a14.48,14.48,0,0,0,14.48,14.48h8.9v24.92a6.6,6.6,0,0,0,3.41,5.92,6.44,6.44,0,0,0,2.91.71,6.31,6.31,0,0,0,4.46-1.86L63,119.39H97.73a4.94,4.94,0,0,0,4.93-5.32v-.13A5,5,0,0,0,97.72,109.37Z"/></g></g></svg>