<svg xmlns="http://www.w3.org/2000/svg" viewBox="0 0 207 176"><defs><style>.cls-1{fill:none;stroke:#2535cc;stroke-miterlimit:10;stroke-width:5px;}.cls-2{fill:#2535cc;}</style></defs><title>Ativo 12</title><g id="Camada_2" data-name="Camada 2"><g id="Camada_6" data-name="Camada 6"><polygon class="cls-1" points="123 140 137 104 104 43 71 104 85 140 123 140"/><rect class="cls-1" x="76.5" y="140.5" width="55" height="11" rx="5.5"/><path class="cls-1" d="M84.5,152.5h40a0,0,0,0,1,0,0v17.81a3.19,3.19,0,0,1-3.19,3.19H87.69a3.19,3.19,0,0,1-3.19-3.19V152.5A0,0,0,0,1,84.5,152.5Z"/><line class="cls-1" x1="104" y1="43" x2="104" y2="97"/><circle class="cls-1" cx="104" cy="104" r="6"/><path class="cls-2" d="M136,106H126a2,2,0,0,1-2-2h0a2,2,0,0,1,2-2h10Z"/><path class="cls-2" d="M82,106H72v-4H82a2,2,0,0,1,2,2h0A2,2,0,0,1,82,106Z"/><path class="cls-2" d="M93.5,10.39c-44.6,3.73-69,34.32-69,87.11h5c0-35.59,11.41-77.62,64-82.1Z"/><path class="cls-2" d="M162.86,33.9c-11.8-13.65-28.38-21.5-49.36-23.42v5c41.37,4.06,64,32.8,64,82h5C182.5,70.37,175.89,49,162.86,33.9Z"/><rect class="cls-1" x="172.5" y="95.5" width="15" height="15"/><rect class="cls-1" x="189.5" y="2.5" width="15" height="15" rx="7.5"/><rect class="cls-1" x="2.5" y="2.5" width="15" height="15" rx="7.5"/><rect class="cls-1" x="19.5" y="95.5" width="15" height="15"/><rect class="cls-1" x="95.5" y="4.5" width="16" height="15"/><rect class="cls-2" x="17.5" y="8" width="77.5" height="5"/><rect class="cls-2" x="111" y="8" width="78.5" height="5"/></g></g></svg>