<svg xmlns="http://www.w3.org/2000/svg" viewBox="0 0 129 129" fill="#005ae0" stroke="#005ae0"><title>Ativo 3</title><g id="Camada_2" data-name="Camada 2"><g id="Camada_5" data-name="Camada 5"><circle cx="29.67" cy="52.92" r="9.76"/><circle cx="64.12" cy="49.48" r="13.59"/><circle cx="98.19" cy="52.92" r="9.76"/><path d="M64.5,0A64.5,64.5,0,1,0,129,64.5,64.5,64.5,0,0,0,64.5,0ZM98.19,39.71A13.21,13.21,0,1,1,85,52.92,13.22,13.22,0,0,1,98.19,39.71ZM64.12,32.44a17,17,0,1,1-17,17A17.05,17.05,0,0,1,64.12,32.44ZM29.67,39.71A13.21,13.21,0,1,1,16.46,52.92,13.22,13.22,0,0,1,29.67,39.71ZM23.9,74.48c-5.1,2.4-8.33,7.31-8.89,13.32a2,2,0,0,1-2,1.87h-.11a2,2,0,0,1-2-2.22c.67-7.53,4.78-13.71,11.28-16.78a19,19,0,0,1,18.52,1.08,2.06,2.06,0,0,1,.49,3l-.07.09a2.07,2.07,0,0,1-2.72.4A14.87,14.87,0,0,0,23.9,74.48ZM87.77,95.79a2.09,2.09,0,0,1-2.09-2C84.83,82.05,76.28,74,64.31,74c-11.8,0-20.52,8.57-21.37,20.64a2.1,2.1,0,0,1-2.1,2h0a2.1,2.1,0,0,1-2.1-2.24c1-14.36,11.43-24.56,25.57-24.56a25.53,25.53,0,0,1,18.51,7.37,25.88,25.88,0,0,1,7.05,16.4A2.11,2.11,0,0,1,87.77,95.79Zm28.37-6.12H116a2,2,0,0,1-2-1.87c-.56-6-3.79-10.92-8.89-13.32a14.87,14.87,0,0,0-14.42.8,2.07,2.07,0,0,1-2.72-.4l-.07-.09a2.06,2.06,0,0,1,.49-3,19,19,0,0,1,18.52-1.08c6.5,3.07,10.61,9.25,11.28,16.79A2,2,0,0,1,116.14,89.67Z"/></g></g></svg>