<svg xmlns="http://www.w3.org/2000/svg" viewBox="0 0 423.06 137"><title>Ativo 2</title><g id="Camada_2" data-name="Camada 2"><g id="LOGO"><polygon points="70.54 77.38 93.22 39.04 115.67 77.95 126.63 60.15 93.35 2.29 59.47 59.64 70.54 77.38"/><polygon points="87.71 84.28 92.82 75.36 92.77 75.26 87.71 84.28"/><polygon points="164.03 0 136.69 0 124.8 20.15 138.39 40.77 152.17 18.72 165.06 38.05 117.06 118.05 92.82 75.36 68.74 118.05 20.74 38.05 33.63 18.72 47.41 40.77 61 20.15 49.12 0 21.77 0 0 37.49 57.54 137 78.33 137 92.9 113.47 107.47 137 128.26 137 185.8 37.49 164.03 0"/><path d="M271.19,51.25h8.58l-8.49,51h-8.77l-12.46-37.4-12.47,37.4h-8.77l-8.48-51h8.58l5.59,33.47,11.14-33.47h8.81l11.14,33.47Z"/><path d="M326,102.26h-8.48V94q-2.81,6.63-6.07,7.75a20.56,20.56,0,0,1-6.64,1.11c-1.67,0-3.47,0-5.4-.11a33.67,33.67,0,0,1-5.69-.72,16.22,16.22,0,0,1-5.07-2A10.16,10.16,0,0,1,285,96.21a12.77,12.77,0,0,1-1.38-6.33,15,15,0,0,1,5.9-12.27q5.91-4.74,15.29-4.74a36.55,36.55,0,0,0,8.15-.71,14.81,14.81,0,0,0,4.46-1.71,16.77,16.77,0,0,0-1.37-6.33,7.38,7.38,0,0,0-4.22-3.67A25.74,25.74,0,0,0,303,59.26a13,13,0,0,0-8.3,3.08,16.42,16.42,0,0,0-2.18,2.23l-6.59-5.31a22.64,22.64,0,0,1,3.37-3.41A21.15,21.15,0,0,1,303,50.78a34.11,34.11,0,0,1,11.28,1.56,16.65,16.65,0,0,1,6.8,4.24,16.08,16.08,0,0,1,3.51,6.05,29.11,29.11,0,0,1,1.28,7c.14,2.45.21,4.82.21,7.13Zm-21.19-7.92A13.27,13.27,0,0,0,311,92.85a16,16,0,0,0,4.7-3.54,6.25,6.25,0,0,0,1.85-3.79V79.6a40.07,40.07,0,0,1-12.71,1.7,22,22,0,0,0-4,.41,17,17,0,0,0-4.17,1.35,8.77,8.77,0,0,0-3.27,2.61,6.64,6.64,0,0,0-1.28,4.21,3.91,3.91,0,0,0,.88,2.73q.87,1,3.6,1.35A65.52,65.52,0,0,0,304.84,94.34Z"/><path d="M376.7,102.21H366.13L351.91,83.29,342.86,95v7.25h-8.49V34.47h8.49V81.16L366,51.44H376.7L357.32,76.33Z"/><path d="M423.06,81H389.59a19.23,19.23,0,0,0,4.46,9.6,10.26,10.26,0,0,0,7.82,3.72,34.84,34.84,0,0,0,9.32-1A12.33,12.33,0,0,0,416,91.12l5.68,6.25q-6.49,5.46-19.81,5.45a17.53,17.53,0,0,1-10.62-3.5,24.87,24.87,0,0,1-7.65-9.44,31.31,31.31,0,0,1,0-26.19,24.81,24.81,0,0,1,7.65-9.4,17.54,17.54,0,0,1,10.62-3.51q9.67,0,15.43,5.9t5.76,15.76Zm-33.47-8.44h25a16.23,16.23,0,0,0-1.27-7,10,10,0,0,0-3.28-4,11.82,11.82,0,0,0-4.17-1.88,18.05,18.05,0,0,0-4-.49A10.21,10.21,0,0,0,394.05,63,19.38,19.38,0,0,0,389.59,72.58Z"/></g></g></svg>