<svg xmlns="http://www.w3.org/2000/svg" viewBox="0 0 129 129" fill="#005ae0" stroke="#005ae0">
    <title>Ativo 5</title>
    <g id="Camada_2" data-name="Camada 2">
        <g id="Camada_5" data-name="Camada 5">
            <path
                d="M56.57,37.21a8.58,8.58,0,0,0-3,6.46q0,6.64,9.06,8.95l3-18.17Q59.54,34.45,56.57,37.21Z" />
            <path
                d="M64.5,0A64.5,64.5,0,1,0,129,64.5,64.5,64.5,0,0,0,64.5,0ZM80.28,58.44a17.3,17.3,0,0,1,5.9,6.29,18.42,18.42,0,0,1,2.73,9.71A20.3,20.3,0,0,1,82.05,90Q75.2,96.29,64.8,96.3a19.45,19.45,0,0,1-2.36-.16L62,98.59a8.38,8.38,0,0,1-8.28,7h0l1.72-10.29Q39.6,92,35.16,77.17l10.13-3.59Q47.92,84,57.08,86l3.59-21.65q-18-4.66-18-19.08A18.67,18.67,0,0,1,49.07,30.7,22.93,22.93,0,0,1,65,25c.64,0,1.41,0,2.3.1l.13-.79a8.35,8.35,0,0,1,8.23-7h0L74.17,26q13.18,2.52,17.64,14.31l-9.92,3.54q-3-7.39-9.27-8.63L69.46,54.12A65.16,65.16,0,0,1,80.28,58.44Z" />
            <path
                d="M64,87c.72,0,1.25,0,1.61,0A12.68,12.68,0,0,0,74.36,84a9.71,9.71,0,0,0,3.46-7.53q0-8.2-10.4-10.13Z" />
        </g>
    </g>
</svg>