<svg xmlns="http://www.w3.org/2000/svg" viewBox="0 0 216.69 217"><defs><style>.cls-1{fill:#2535cc;}</style></defs><title>Ativo 11</title><g id="Camada_2" data-name="Camada 2"><g id="Camada_6" data-name="Camada 6"><path class="cls-1" d="M51.69,23.59A20.52,20.52,0,0,1,71.78,7.08H144a20.5,20.5,0,0,1,20.48,20.48V87.27h7.08V27.56A27.59,27.59,0,0,0,144,0H71.78A27.58,27.58,0,0,0,44.54,23.59Z"/><path class="cls-1" d="M164.52,186.34v3.1A20.5,20.5,0,0,1,144,209.92H71.78A20.5,20.5,0,0,1,51.3,189.44V122.65H44.23v66.79A27.58,27.58,0,0,0,71.78,217H144a27.59,27.59,0,0,0,27.56-27.56v-3.1Z"/><circle class="cls-1" cx="107.91" cy="17.69" r="5.9"/><path class="cls-1" d="M124.24,201a4,4,0,0,1-3.95-4.08V107c0-7.74,4.91-13.8,11.17-13.8h74.06c6.27,0,11.17,6.06,11.17,13.8v59.56c0,7.73-4.9,13.8-11.17,13.8H149.9l-22.85,19.4A3.84,3.84,0,0,1,124.24,201Zm7.22-100.72c-1.93,0-4.09,2.76-4.09,6.73v83.2l19.93-16.92h58.22c1.94,0,4.09-2.76,4.09-6.72V107c0-4-2.15-6.73-4.09-6.73Z"/><path class="cls-1" d="M92.45,137.27a3.87,3.87,0,0,1-2.81-1.22L66.79,116.64H11.17C4.91,116.64,0,110.58,0,102.84V43.28c0-7.74,4.91-13.8,11.17-13.8H85.23c6.26,0,11.17,6.06,11.17,13.8V133.2a4,4,0,0,1-2.89,3.92A3.53,3.53,0,0,1,92.45,137.27ZM11.17,36.56c-1.94,0-4.09,2.76-4.09,6.72v59.56c0,4,2.15,6.72,4.09,6.72H69.39l19.93,16.93V43.28c0-4-2.16-6.72-4.09-6.72Z"/><path class="cls-1" d="M182.94,127.51l-12.7-12.7a2.26,2.26,0,0,0-3.19,0l-12.69,12.7a3.66,3.66,0,0,0,0,5.19h0a3.66,3.66,0,0,0,5.19,0l5.2-5.19v26.63a3.89,3.89,0,0,0,3.9,3.89h0a3.89,3.89,0,0,0,3.89-3.89V127.51l5.2,5.19a3.67,3.67,0,0,0,5.2,0h0A3.68,3.68,0,0,0,182.94,127.51Z"/><path class="cls-1" d="M51.71,77l-8.27,8.27a3.44,3.44,0,0,1-4.93,0l-3.29-3.3a3.43,3.43,0,0,1,0-4.92l8.27-8.27L35.71,61l-8.27,8.27a12.26,12.26,0,0,0-2.71,4.06,13.26,13.26,0,0,0-1,4.68,12.43,12.43,0,0,0,.82,4.68,11.32,11.32,0,0,0,2.63,4.06l6.55,6.55a11.24,11.24,0,0,0,4.06,2.63,12.22,12.22,0,0,0,4.68.81,13,13,0,0,0,4.68-1A12.26,12.26,0,0,0,51.22,93l8.27-8.27Z"/><rect class="cls-1" x="57.93" y="70.06" width="5.92" height="11" transform="translate(-35.59 65.19) rotate(-45)"/><rect class="cls-1" x="41.93" y="54.06" width="5.92" height="11" transform="translate(-28.96 49.19) rotate(-45)"/><polygon class="cls-1" points="68.79 50.91 59.29 54.54 62.46 57.25 57.93 61.78 67.44 58.16 64.04 55.67 68.79 50.91"/></g></g></svg>