<svg xmlns="http://www.w3.org/2000/svg" viewBox="0 0 129 129"><title>Ativo 6</title><g id="Camada_2" data-name="Camada 2"><g id="Camada_5" data-name="Camada 5"><path d="M64.5,0A64.5,64.5,0,1,0,129,64.5,64.5,64.5,0,0,0,64.5,0ZM63.44,25.44,74.52,36.52,64.94,46.1,53.86,35Zm8.11,75a20.44,20.44,0,0,1-14.47,6h0a20.48,20.48,0,0,1-14.47-6L30,87.83a20.47,20.47,0,0,1-6-14.47h0a20.51,20.51,0,0,1,6-14.47l21.21-21.2L62.27,48.77l-22,22a3.69,3.69,0,0,0,0,5.2L54.49,90.17a3.66,3.66,0,0,0,5.19,0l22-22L92.76,79.26ZM95.43,76.59,84.35,65.51l9.58-9.58L105,67ZM93.68,34l7.58,5.27-20.9,8.23L90.44,37.31l-7.61-6L105,22.54Z"/></g></g></svg>