<svg xmlns="http://www.w3.org/2000/svg" viewBox="0 0 210.68 207.21">
  <defs>
    <style>.cls-1{fill:#2535cc;}</style>
  </defs>
  <title>Ativo 10</title>
  <g id="Camada_2" data-name="Camada 2">
    <g id="Camada_6" data-name="Camada 6">
      <path class="cls-1"
        d="M23.62,161.15c6.25-8.83,16.84-5.39,23.2,1s10.47,18,1,23.2C6.07,208.08,0,207.21,0,207.21S11.27,178.6,23.62,161.15Z" />
      <path class="cls-1"
        d="M142.11,123.4a171.47,171.47,0,0,0,18.3-15.9A173.34,173.34,0,0,0,210.68,0a173.29,173.29,0,0,0-107.5,50.27A175,175,0,0,0,88.82,66.54l-8-.8-19-1.91L44,62.05,38.15,74,14.46,122.76,8.39,135.24,31,146.05A69.62,69.62,0,0,1,65.9,183.51l6.55,16.73,76-37ZM26.77,129.59,37.18,110.1l18.4-34.53,18.5,1.68L44.25,128.17l-4.92,8.39Zm124.1-71.51a15.94,15.94,0,1,1,22.54,0A15.94,15.94,0,0,1,150.87,58.08ZM91.7,175l-12.94,6.73L73.7,169.93,77,168l52.68-31.63,2.91,17.41Z" />
    </g>
  </g>
</svg>