<svg xmlns="http://www.w3.org/2000/svg" viewBox="0 0 186 162"><defs><style>.cls-1{fill:#4419dd;}</style></defs><title>Ativo 13</title><g id="Camada_2" data-name="Camada 2"><g id="Camada_6" data-name="Camada 6"><path class="cls-1" d="M174,162H12A12,12,0,0,1,0,150V12A12,12,0,0,1,12,0H174a12,12,0,0,1,12,12V150A12,12,0,0,1,174,162ZM12,11a1,1,0,0,0-1,1V150a1,1,0,0,0,1,1H174a1,1,0,0,0,1-1V12a1,1,0,0,0-1-1Z"/><rect class="cls-1" x="5.5" y="41.21" width="175" height="11"/><circle class="cls-1" cx="24.5" cy="27.5" r="6"/><circle class="cls-1" cx="44.5" cy="27.5" r="6"/><circle class="cls-1" cx="65.5" cy="27.5" r="6"/><path class="cls-1" d="M114.92,116.7a29.14,29.14,0,1,1,29.13-29.13A29.17,29.17,0,0,1,114.92,116.7Zm0-50.27a21.14,21.14,0,1,0,21.13,21.14A21.16,21.16,0,0,0,114.92,66.43Z"/><path class="cls-1" d="M159.19,138.5l-29.84-29.83L135,103l29.83,29.83a4,4,0,0,1,0,5.66h0A4,4,0,0,1,159.19,138.5Z"/><path class="cls-1" d="M77.07,105.5H24.89a5.23,5.23,0,0,1-5.43-5h0a5.23,5.23,0,0,1,5.43-5H77.07a5.23,5.23,0,0,1,5.43,5h0A5.23,5.23,0,0,1,77.07,105.5Z"/><path class="cls-1" d="M77,79.5H24a5.28,5.28,0,0,1-5.52-5h0a5.28,5.28,0,0,1,5.52-5H77a5.28,5.28,0,0,1,5.52,5h0A5.28,5.28,0,0,1,77,79.5Z"/><rect class="cls-1" x="19.5" y="123.5" width="117" height="10" rx="5"/></g></g></svg>